<svg data-name="Group 202" xmlns="http://www.w3.org/2000/svg" width="122.007" height="10.605" viewBox="0 0 122.007 10.605"><defs><clipPath id="a"><path data-name="Rectangle 51" fill="none" d="M0 0h122.007v10.605H0z"/></clipPath></defs><g data-name="Group 201"><g data-name="Group 200" fill="none" stroke="#000" stroke-miterlimit="10" stroke-width="1.172" clip-path="url(#a)"><path data-name="Line 977" d="M-157.889-15.216l-49.174 40.575"/><path data-name="Line 978" d="M-148.941-15.216l-49.174 40.575"/><path data-name="Line 979" d="M-139.994-15.216l-49.174 40.575"/><path data-name="Line 980" d="M-131.046-15.216l-49.174 40.575"/><path data-name="Line 981" d="M-122.098-15.216l-49.174 40.575"/><path data-name="Line 982" d="M-113.151-15.216l-49.174 40.575"/><path data-name="Line 983" d="M-104.203-15.216l-49.174 40.575"/><path data-name="Line 984" d="M-95.255-15.216l-49.174 40.575"/><path data-name="Line 985" d="M-86.308-15.216l-49.174 40.575"/><path data-name="Line 986" d="M-77.36-15.216l-49.174 40.575"/><path data-name="Line 987" d="M-68.412-15.216l-49.174 40.575"/><path data-name="Line 988" d="M-59.465-15.216l-49.174 40.575"/><path data-name="Line 989" d="M-50.517-15.216l-49.174 40.575"/><path data-name="Line 990" d="M-41.569-15.216l-49.174 40.575"/><path data-name="Line 991" d="M-32.622-15.216l-49.174 40.575"/><path data-name="Line 992" d="M-23.674-15.216l-49.174 40.575"/><path data-name="Line 993" d="M-14.726-15.216L-63.9 25.359"/><path data-name="Line 994" d="M-5.779-15.216l-49.174 40.575"/><path data-name="Line 995" d="M3.169-15.216l-49.174 40.575"/><path data-name="Line 996" d="M12.117-15.216l-49.174 40.575"/><path data-name="Line 997" d="M21.065-15.216l-49.174 40.575"/><path data-name="Line 998" d="M30.012-15.216l-49.174 40.575"/><path data-name="Line 999" d="M38.96-15.216l-49.174 40.575"/><path data-name="Line 1000" d="M47.907-15.216L-1.267 25.359"/><path data-name="Line 1001" d="M56.855-15.216L7.681 25.359"/><path data-name="Line 1002" d="M65.803-15.216L16.629 25.359"/><path data-name="Line 1003" d="M74.751-15.216L25.577 25.359"/><path data-name="Line 1004" d="M83.698-15.216L34.524 25.359"/><path data-name="Line 1005" d="M92.646-15.216L43.472 25.359"/><path data-name="Line 1006" d="M101.594-15.216L52.42 25.359"/><path data-name="Line 1007" d="M110.541-15.216L61.367 25.359"/><path data-name="Line 1008" d="M119.489-15.216L70.315 25.359"/><path data-name="Line 1009" d="M128.437-15.216L79.263 25.359"/><path data-name="Line 1010" d="M137.384-15.216L88.21 25.359"/><path data-name="Line 1011" d="M146.332-15.216L97.158 25.359"/><path data-name="Line 1012" d="M155.28-15.216l-49.174 40.575"/><path data-name="Line 1013" d="M164.227-15.216l-49.174 40.575"/><path data-name="Line 1014" d="M173.175-15.216l-49.174 40.575"/><path data-name="Line 1015" d="M182.123-15.216l-49.174 40.575"/><path data-name="Line 1016" d="M191.07-15.216l-49.174 40.575"/><path data-name="Line 1017" d="M200.018-15.216l-49.174 40.575"/><path data-name="Line 1018" d="M208.966-15.216l-49.174 40.575"/><path data-name="Line 1019" d="M217.913-15.216l-49.174 40.575"/><path data-name="Line 1020" d="M226.861-15.216l-49.174 40.575"/><path data-name="Line 1021" d="M235.809-15.216l-49.174 40.575"/><path data-name="Line 1022" d="M244.756-15.216l-49.174 40.575"/><path data-name="Line 1023" d="M253.704-15.216L204.53 25.359"/><path data-name="Line 1024" d="M262.652-15.216l-49.174 40.575"/><path data-name="Line 1025" d="M271.599-15.216l-49.174 40.575"/><path data-name="Line 1026" d="M280.547-15.216l-49.174 40.575"/><path data-name="Line 1027" d="M289.495-15.216l-49.174 40.575"/><path data-name="Line 1028" d="M298.442-15.216l-49.174 40.575"/><path data-name="Line 1029" d="M307.39-15.216l-49.174 40.575"/><path data-name="Line 1030" d="M316.338-15.216l-49.174 40.575"/><path data-name="Line 1031" d="M325.285-15.216l-49.174 40.575"/><path data-name="Line 1032" d="M334.233-15.216l-49.174 40.575"/><path data-name="Line 1033" d="M343.181-15.216l-49.174 40.575"/><path data-name="Line 1034" d="M352.128-15.216l-49.174 40.575"/><path data-name="Line 1035" d="M361.076-15.216l-49.174 40.575"/><path data-name="Line 1036" d="M370.024-15.216L320.85 25.359"/><path data-name="Line 1037" d="M378.972-15.216l-49.174 40.575"/><path data-name="Line 1038" d="M387.919-15.216l-49.174 40.575"/><path data-name="Line 1039" d="M396.867-15.216l-49.174 40.575"/><path data-name="Line 1040" d="M405.814-15.216L356.64 25.359"/><path data-name="Line 1041" d="M414.762-15.216l-49.174 40.575"/><path data-name="Line 1042" d="M423.71-15.216l-49.174 40.575"/><path data-name="Line 1043" d="M432.658-15.216l-49.174 40.575"/><path data-name="Line 1044" d="M441.605-15.216l-49.174 40.575"/><path data-name="Line 1045" d="M450.553-15.216l-49.174 40.575"/><path data-name="Line 1046" d="M459.501-15.216l-49.174 40.575"/><path data-name="Line 1047" d="M468.448-15.216l-49.174 40.575"/><path data-name="Line 1048" d="M477.396-15.216l-49.174 40.575"/><path data-name="Line 1049" d="M486.344-15.216L437.17 25.359"/><path data-name="Line 1050" d="M495.291-15.216l-49.174 40.575"/><path data-name="Line 1051" d="M504.239-15.216l-49.174 40.575"/><path data-name="Line 1052" d="M513.187-15.216l-49.174 40.575"/><path data-name="Line 1053" d="M522.134-15.216L472.96 25.359"/><path data-name="Line 1054" d="M531.082-15.216l-49.174 40.575"/><path data-name="Line 1055" d="M540.03-15.216l-49.174 40.575"/><path data-name="Line 1056" d="M548.977-15.216l-49.174 40.575"/><path data-name="Line 1057" d="M557.925-15.216l-49.174 40.575"/><path data-name="Line 1058" d="M566.873-15.216l-49.174 40.575"/></g></g></svg>