<svg xmlns="http://www.w3.org/2000/svg" width="449.857" height="269.325" viewBox="0 0 449.857 269.325"><defs><clipPath id="a"><path data-name="Rectangle 66" transform="translate(222.033 219.264)" fill="none" d="M0 0h95.438v18.481H0z"/></clipPath><clipPath id="b"><path data-name="Rectangle 67" transform="translate(406.635 439.264)" fill="none" d="M0 0h31.438v11.481H0z"/></clipPath></defs><g data-name="Group 595"><path data-name="Path 705" d="M5.369 49.824h196.425l7.362-7.316v-28.9H5.369z" fill="#fff"/><path data-name="Path 706" d="M443.909 227.624H279.202l-7.362 7.316v28.9h172.069z" fill="#fff"/><g data-name="Group 232"><path data-name="Path 707" d="M449.325 268.794H.531V.532h419.038l29.76 29.184z" fill="none" stroke="#000" stroke-miterlimit="10" stroke-width="1.063"/><g data-name="Group 228"><g data-name="Group 227" clip-path="url(#a)" transform="translate(-125.631 -201.776)"><g data-name="Group 226" fill="none" stroke="#000" stroke-miterlimit="10" stroke-width="1.594"><path data-name="Line 1237" d="M-5.001 192.748l-70.709 70.709"/><path data-name="Line 1238" d="M3.612 192.748l-70.709 70.709"/><path data-name="Line 1239" d="M12.225 192.748l-70.709 70.709"/><path data-name="Line 1240" d="M20.837 192.748l-70.709 70.709"/><path data-name="Line 1241" d="M29.45 192.748l-70.709 70.709"/><path data-name="Line 1242" d="M38.063 192.748l-70.709 70.709"/><path data-name="Line 1243" d="M46.676 192.748l-70.709 70.709"/><path data-name="Line 1244" d="M55.289 192.748l-70.709 70.709"/><path data-name="Line 1245" d="M63.902 192.748l-70.709 70.709"/><path data-name="Line 1246" d="M72.515 192.748L1.806 263.457"/><path data-name="Line 1247" d="M81.128 192.748l-70.709 70.709"/><path data-name="Line 1248" d="M89.741 192.748l-70.709 70.709"/><path data-name="Line 1249" d="M98.353 192.748l-70.709 70.709"/><path data-name="Line 1250" d="M106.966 192.748l-70.709 70.709"/><path data-name="Line 1251" d="M115.579 192.748L44.87 263.457"/><path data-name="Line 1252" d="M124.192 192.748l-70.709 70.709"/><path data-name="Line 1253" d="M132.805 192.748l-70.709 70.709"/><path data-name="Line 1254" d="M141.418 192.748l-70.709 70.709"/><path data-name="Line 1255" d="M150.031 192.748l-70.709 70.709"/><path data-name="Line 1256" d="M158.644 192.748l-70.709 70.709"/><path data-name="Line 1257" d="M167.257 192.748l-70.709 70.709"/><path data-name="Line 1258" d="M175.869 192.748l-70.709 70.709"/><path data-name="Line 1259" d="M184.482 192.748l-70.709 70.709"/><path data-name="Line 1260" d="M193.095 192.748l-70.709 70.709"/><path data-name="Line 1261" d="M201.708 192.748l-70.709 70.709"/><path data-name="Line 1262" d="M210.321 192.748l-70.709 70.709"/><path data-name="Line 1263" d="M218.934 192.748l-70.709 70.709"/><path data-name="Line 1264" d="M227.547 192.748l-70.709 70.709"/><path data-name="Line 1265" d="M236.16 192.748l-70.709 70.709"/><path data-name="Line 1266" d="M244.773 192.748l-70.709 70.709"/><path data-name="Line 1267" d="M253.385 192.748l-70.709 70.709"/><path data-name="Line 1268" d="M261.998 192.748l-70.709 70.709"/><path data-name="Line 1269" d="M270.611 192.748l-70.709 70.709"/><path data-name="Line 1270" d="M279.224 192.748l-70.709 70.709"/><path data-name="Line 1271" d="M287.837 192.748l-70.709 70.709"/><path data-name="Line 1272" d="M296.45 192.748l-70.709 70.709"/><path data-name="Line 1273" d="M305.063 192.748l-70.709 70.709"/><path data-name="Line 1274" d="M313.676 192.748l-70.709 70.709"/><path data-name="Line 1275" d="M322.289 192.748l-70.709 70.709"/><path data-name="Line 1276" d="M330.901 192.748l-70.709 70.709"/><path data-name="Line 1277" d="M339.514 192.748l-70.709 70.709"/><path data-name="Line 1278" d="M348.127 192.748l-70.709 70.709"/><path data-name="Line 1279" d="M356.74 192.748l-70.709 70.709"/><path data-name="Line 1280" d="M365.353 192.748l-70.709 70.709"/><path data-name="Line 1281" d="M373.966 192.748l-70.709 70.709"/><path data-name="Line 1282" d="M382.579 192.748l-70.709 70.709"/><path data-name="Line 1283" d="M391.192 192.748l-70.709 70.709"/><path data-name="Line 1284" d="M399.805 192.748l-70.709 70.709"/><path data-name="Line 1285" d="M408.417 192.748l-70.709 70.709"/><path data-name="Line 1286" d="M417.03 192.748l-70.709 70.709"/><path data-name="Line 1287" d="M425.643 192.748l-70.709 70.709"/><path data-name="Line 1288" d="M434.256 192.748l-70.709 70.709"/><path data-name="Line 1289" d="M442.869 192.748l-70.709 70.709"/><path data-name="Line 1290" d="M451.482 192.748l-70.709 70.709"/><path data-name="Line 1291" d="M460.095 192.748l-70.709 70.709"/><path data-name="Line 1292" d="M468.708 192.748l-70.709 70.709"/><path data-name="Line 1293" d="M477.321 192.748l-70.709 70.709"/><path data-name="Line 1294" d="M485.933 192.748l-70.709 70.709"/><path data-name="Line 1295" d="M494.546 192.748l-70.709 70.709"/><path data-name="Line 1296" d="M503.159 192.748l-70.709 70.709"/><path data-name="Line 1297" d="M511.772 192.748l-70.709 70.709"/><path data-name="Line 1298" d="M520.385 192.748l-70.709 70.709"/><path data-name="Line 1299" d="M528.998 192.748l-70.709 70.709"/><path data-name="Line 1300" d="M537.611 192.748l-70.709 70.709"/><path data-name="Line 1301" d="M546.224 192.748l-70.709 70.709"/><path data-name="Line 1302" d="M554.837 192.748l-70.709 70.709"/><path data-name="Line 1303" d="M563.449 192.748l-70.709 70.709"/><path data-name="Line 1304" d="M572.062 192.748l-70.709 70.709"/><path data-name="Line 1305" d="M580.675 192.748l-70.709 70.709"/><path data-name="Line 1306" d="M589.288 192.748l-70.709 70.709"/><path data-name="Line 1307" d="M597.901 192.748l-70.709 70.709"/><path data-name="Line 1308" d="M606.514 192.748l-70.709 70.709"/><path data-name="Line 1309" d="M615.127 192.748l-70.709 70.709"/><path data-name="Line 1310" d="M623.74 192.748l-70.709 70.709"/><path data-name="Line 1311" d="M632.353 192.748l-70.709 70.709"/><path data-name="Line 1312" d="M640.965 192.748l-70.709 70.709"/><path data-name="Line 1313" d="M649.578 192.748l-70.709 70.709"/><path data-name="Line 1314" d="M658.191 192.748l-70.709 70.709"/><path data-name="Line 1315" d="M666.804 192.748l-70.709 70.709"/><path data-name="Line 1316" d="M675.417 192.748l-70.709 70.709"/><path data-name="Line 1317" d="M684.03 192.748l-70.709 70.709"/><path data-name="Line 1318" d="M692.643 192.748l-70.709 70.709"/><path data-name="Line 1319" d="M701.256 192.748l-70.709 70.709"/><path data-name="Line 1320" d="M709.869 192.748l-70.709 70.709"/><path data-name="Line 1321" d="M718.481 192.748l-70.709 70.709"/><path data-name="Line 1322" d="M727.094 192.748l-70.709 70.709"/><path data-name="Line 1323" d="M735.707 192.748l-70.709 70.709"/><path data-name="Line 1324" d="M744.32 192.748l-70.709 70.709"/><path data-name="Line 1325" d="M752.933 192.748l-70.709 70.709"/><path data-name="Line 1326" d="M761.546 192.748l-70.709 70.709"/><path data-name="Line 1327" d="M770.159 192.748l-70.709 70.709"/><path data-name="Line 1328" d="M778.772 192.748l-70.709 70.709"/><path data-name="Line 1329" d="M787.385 192.748l-70.709 70.709"/><path data-name="Line 1330" d="M795.997 192.748l-70.709 70.709"/><path data-name="Line 1331" d="M804.61 192.748l-70.709 70.709"/><path data-name="Line 1332" d="M813.223 192.748l-70.709 70.709"/><path data-name="Line 1333" d="M821.836 192.748l-70.709 70.709"/><path data-name="Line 1334" d="M830.449 192.748l-70.709 70.709"/><path data-name="Line 1335" d="M839.062 192.748l-70.709 70.709"/><path data-name="Line 1336" d="M847.675 192.748l-70.709 70.709"/><path data-name="Line 1337" d="M856.288 192.748l-70.709 70.709"/><path data-name="Line 1338" d="M864.901 192.748l-70.709 70.709"/><path data-name="Line 1339" d="M873.514 192.748l-70.709 70.709"/><path data-name="Line 1340" d="M882.126 192.748l-70.709 70.709"/><path data-name="Line 1341" d="M890.739 192.748l-70.709 70.709"/><path data-name="Line 1342" d="M899.352 192.748l-70.709 70.709"/><path data-name="Line 1343" d="M907.965 192.748l-70.709 70.709"/><path data-name="Line 1344" d="M916.578 192.748l-70.709 70.709"/><path data-name="Line 1345" d="M925.191 192.748l-70.709 70.709"/><path data-name="Line 1346" d="M933.804 192.748l-70.709 70.709"/><path data-name="Line 1347" d="M942.417 192.748l-70.709 70.709"/><path data-name="Line 1348" d="M951.029 192.748l-70.709 70.709"/><path data-name="Line 1349" d="M959.642 192.748l-70.709 70.709"/><path data-name="Line 1350" d="M968.255 192.748l-70.709 70.709"/><path data-name="Line 1351" d="M976.868 192.748l-70.709 70.709"/><path data-name="Line 1352" d="M985.481 192.748l-70.709 70.709"/><path data-name="Line 1353" d="M994.094 192.748l-70.709 70.709"/><path data-name="Line 1354" d="M1002.707 192.748l-70.709 70.709"/><path data-name="Line 1355" d="M1011.32 192.748l-70.709 70.709"/><path data-name="Line 1356" d="M1019.933 192.748l-70.709 70.709"/><path data-name="Line 1357" d="M1028.545 192.748l-70.709 70.709"/><path data-name="Line 1358" d="M1037.158 192.748l-70.709 70.709"/></g></g></g><g data-name="Group 231"><g data-name="Group 230" clip-path="url(#b)" transform="translate(-125.631 -201.776)"><g data-name="Group 229" fill="none" stroke="#000" stroke-miterlimit="10" stroke-width="1.594"><path data-name="Line 1359" d="M179.6 412.748l-70.709 70.709"/><path data-name="Line 1360" d="M188.213 412.996l-70.709 70.709"/><path data-name="Line 1361" d="M196.826 413.244l-70.709 70.709"/><path data-name="Line 1362" d="M205.439 413.492l-70.709 70.709"/><path data-name="Line 1363" d="M214.051 413.74l-70.709 70.709"/><path data-name="Line 1364" d="M222.664 413.988l-70.709 70.709"/><path data-name="Line 1365" d="M231.277 414.236l-70.709 70.709"/><path data-name="Line 1366" d="M239.89 414.484l-70.709 70.709"/><path data-name="Line 1367" d="M248.503 414.732l-70.709 70.709"/><path data-name="Line 1368" d="M257.116 414.98l-70.709 70.709"/><path data-name="Line 1369" d="M265.729 415.228l-70.709 70.709"/><path data-name="Line 1370" d="M274.342 415.476l-70.709 70.709"/><path data-name="Line 1371" d="M282.955 415.723l-70.709 70.709"/><path data-name="Line 1372" d="M291.567 415.971l-70.709 70.709"/><path data-name="Line 1373" d="M300.18 416.219l-70.709 70.709"/><path data-name="Line 1374" d="M308.793 416.467l-70.709 70.709"/><path data-name="Line 1375" d="M317.406 416.715l-70.709 70.709"/><path data-name="Line 1376" d="M326.019 416.963l-70.709 70.709"/><path data-name="Line 1377" d="M334.632 417.211l-70.709 70.709"/><path data-name="Line 1378" d="M343.245 417.459l-70.709 70.709"/><path data-name="Line 1379" d="M351.858 417.707l-70.709 70.709"/><path data-name="Line 1380" d="M360.471 417.955l-70.709 70.709"/><path data-name="Line 1381" d="M369.083 418.203l-70.709 70.709"/><path data-name="Line 1382" d="M377.696 418.451l-70.709 70.709"/><path data-name="Line 1383" d="M386.309 418.699L315.6 489.408"/><path data-name="Line 1384" d="M394.922 418.947l-70.709 70.709"/><path data-name="Line 1385" d="M403.535 419.195l-70.709 70.709"/><path data-name="Line 1386" d="M412.148 419.442l-70.709 70.709"/><path data-name="Line 1387" d="M420.761 419.69l-70.709 70.709"/><path data-name="Line 1388" d="M429.374 419.938l-70.709 70.709"/><path data-name="Line 1389" d="M437.987 420.186l-70.709 70.709"/><path data-name="Line 1390" d="M446.599 420.434l-70.709 70.709"/><path data-name="Line 1391" d="M455.212 420.682l-70.709 70.709"/><path data-name="Line 1392" d="M463.825 420.93l-70.709 70.709"/><path data-name="Line 1393" d="M472.438 421.178l-70.709 70.709"/><path data-name="Line 1394" d="M481.051 421.426l-70.709 70.709"/><path data-name="Line 1395" d="M489.664 421.674l-70.709 70.709"/><path data-name="Line 1396" d="M498.277 421.922l-70.709 70.709"/><path data-name="Line 1397" d="M506.89 422.17l-70.709 70.709"/><path data-name="Line 1398" d="M515.503 422.418l-70.709 70.709"/><path data-name="Line 1399" d="M524.115 422.666l-70.709 70.709"/><path data-name="Line 1400" d="M532.728 422.914l-70.709 70.709"/><path data-name="Line 1401" d="M541.341 423.161l-70.709 70.709"/><path data-name="Line 1402" d="M549.954 423.409l-70.709 70.709"/><path data-name="Line 1403" d="M558.567 423.657l-70.709 70.709"/><path data-name="Line 1404" d="M567.18 423.905l-70.709 70.709"/><path data-name="Line 1405" d="M575.793 424.153l-70.709 70.709"/><path data-name="Line 1406" d="M584.406 424.401l-70.709 70.709"/><path data-name="Line 1407" d="M593.019 424.649l-70.709 70.709"/><path data-name="Line 1408" d="M601.631 424.897l-70.709 70.709"/><path data-name="Line 1409" d="M610.244 425.145l-70.709 70.709"/><path data-name="Line 1410" d="M618.857 425.393l-70.709 70.709"/><path data-name="Line 1411" d="M627.47 425.641l-70.709 70.709"/><path data-name="Line 1412" d="M636.083 425.889l-70.709 70.709"/><path data-name="Line 1413" d="M644.696 426.137l-70.709 70.709"/><path data-name="Line 1414" d="M653.309 426.385L582.6 497.094"/><path data-name="Line 1415" d="M661.922 426.633l-70.709 70.709"/><path data-name="Line 1416" d="M670.535 426.88l-70.709 70.709"/><path data-name="Line 1417" d="M679.147 427.128l-70.709 70.709"/><path data-name="Line 1418" d="M687.76 427.376l-70.709 70.709"/><path data-name="Line 1419" d="M696.373 427.624l-70.709 70.709"/><path data-name="Line 1420" d="M704.986 427.872l-70.709 70.709"/><path data-name="Line 1421" d="M713.599 428.12l-70.709 70.709"/><path data-name="Line 1422" d="M722.212 428.368l-70.709 70.709"/><path data-name="Line 1423" d="M730.825 428.616l-70.709 70.709"/><path data-name="Line 1424" d="M739.438 428.864l-70.709 70.709"/><path data-name="Line 1425" d="M748.051 429.112l-70.709 70.709"/><path data-name="Line 1426" d="M756.663 429.36l-70.709 70.709"/><path data-name="Line 1427" d="M765.276 429.608l-70.709 70.709"/><path data-name="Line 1428" d="M773.889 429.856l-70.709 70.709"/><path data-name="Line 1429" d="M782.502 430.104l-70.709 70.709"/><path data-name="Line 1430" d="M791.115 430.352l-70.709 70.709"/><path data-name="Line 1431" d="M799.728 430.599l-70.709 70.709"/><path data-name="Line 1432" d="M808.341 430.847l-70.709 70.709"/><path data-name="Line 1433" d="M816.954 431.095l-70.709 70.709"/><path data-name="Line 1434" d="M825.567 431.343l-70.709 70.709"/><path data-name="Line 1435" d="M834.18 431.591L763.471 502.3"/><path data-name="Line 1436" d="M842.792 431.839l-70.709 70.709"/><path data-name="Line 1437" d="M851.405 432.087l-70.709 70.709"/><path data-name="Line 1438" d="M860.018 432.335l-70.709 70.709"/><path data-name="Line 1439" d="M868.631 432.583l-70.709 70.709"/><path data-name="Line 1440" d="M877.244 432.831l-70.709 70.709"/><path data-name="Line 1441" d="M885.857 433.079l-70.709 70.709"/><path data-name="Line 1442" d="M894.47 433.327l-70.709 70.709"/><path data-name="Line 1443" d="M903.083 433.575l-70.709 70.709"/><path data-name="Line 1444" d="M911.696 433.823l-70.709 70.709"/><path data-name="Line 1445" d="M920.308 434.071l-70.709 70.709"/><path data-name="Line 1446" d="M928.921 434.319l-70.709 70.709"/><path data-name="Line 1447" d="M937.534 434.566l-70.709 70.709"/><path data-name="Line 1448" d="M946.147 434.814l-70.709 70.709"/><path data-name="Line 1449" d="M954.76 435.062l-70.709 70.709"/><path data-name="Line 1450" d="M963.373 435.31l-70.709 70.709"/><path data-name="Line 1451" d="M971.986 435.558l-70.709 70.709"/><path data-name="Line 1452" d="M980.599 435.806l-70.709 70.709"/><path data-name="Line 1453" d="M989.212 436.054l-70.709 70.709"/><path data-name="Line 1454" d="M997.824 436.302l-70.709 70.709"/><path data-name="Line 1455" d="M1006.437 436.55l-70.709 70.709"/><path data-name="Line 1456" d="M1015.05 436.798l-70.709 70.709"/><path data-name="Line 1457" d="M1023.663 437.046l-70.709 70.709"/><path data-name="Line 1458" d="M1032.276 437.294l-70.709 70.709"/><path data-name="Line 1459" d="M1040.889 437.542l-70.709 70.709"/><path data-name="Line 1460" d="M1049.502 437.79l-70.709 70.709"/><path data-name="Line 1461" d="M1058.115 438.038l-70.709 70.709"/><path data-name="Line 1462" d="M1066.727 438.285l-70.709 70.709"/><path data-name="Line 1463" d="M1075.34 438.533l-70.709 70.709"/><path data-name="Line 1464" d="M1083.953 438.781l-70.709 70.709"/><path data-name="Line 1465" d="M1092.566 439.029l-70.709 70.709"/><path data-name="Line 1466" d="M1101.179 439.277l-70.709 70.709"/><path data-name="Line 1467" d="M1109.792 439.525l-70.709 70.709"/><path data-name="Line 1468" d="M1118.405 439.773l-70.709 70.709"/><path data-name="Line 1469" d="M1127.018 440.021l-70.709 70.709"/><path data-name="Line 1470" d="M1135.631 440.269l-70.709 70.709"/><path data-name="Line 1471" d="M1144.244 440.517l-70.709 70.709"/><path data-name="Line 1472" d="M1152.856 440.765l-70.709 70.709"/><path data-name="Line 1473" d="M1161.469 441.013l-70.709 70.709"/><path data-name="Line 1474" d="M1170.082 441.261l-70.709 70.709"/><path data-name="Line 1475" d="M1178.695 441.509l-70.709 70.709"/><path data-name="Line 1476" d="M1187.308 441.757l-70.709 70.709"/><path data-name="Line 1477" d="M1195.921 442.004l-70.709 70.709"/><path data-name="Line 1478" d="M1204.534 442.252l-70.709 70.709"/><path data-name="Line 1479" d="M1213.147 442.5l-70.709 70.709"/><path data-name="Line 1480" d="M1221.76 442.748l-70.709 70.709"/></g></g></g></g></g></svg>